<?xml version="1.0" encoding="utf-8"?>
<!-- Generator: Adobe Illustrator 17.0.0, SVG Export Plug-In . SVG Version: 6.00 Build 0)  -->
<!DOCTYPE svg PUBLIC "-//W3C//DTD SVG 1.1//EN" "http://www.w3.org/Graphics/SVG/1.1/DTD/svg11.dtd">
<svg version="1.1" id="Capa_1" xmlns="http://www.w3.org/2000/svg" xmlns:xlink="http://www.w3.org/1999/xlink" x="0px" y="0px"
	 width="962.579px" height="1180.075px" viewBox="1019.214 909.962 962.579 1180.075"
	 enable-background="new 1019.214 909.962 962.579 1180.075" xml:space="preserve">
<g>
	<path fill="#010101" d="M1750.32,1655.043c0,0,229.726-124.908,231.473-403.549l-94.336-20.964l85.601-74.246
		c0,0-48.041-172.949-214.003-246.322l-33.193,162.468l-121.196,76.499v24.491c0,24.3-6.069,33.351-24.894,38.057v-66.535
		l-79.268-69.892l-79.269,69.892v66.535c-18.825-4.706-24.894-13.757-24.894-38.057v-24.491l-121.196-76.499l-33.193-162.468
		c-165.961,73.372-214.003,246.322-214.003,246.322l85.601,74.246l-94.336,20.964c1.747,278.641,231.473,403.549,231.473,403.549
		l71.625-180.811l74.246-28.825l0.273-21.205c0.819-27.164,24.403-23.397,24.403-23.397v60.068l39.089,22.093v267.286
		l-27.109,16.683c-0.312,4.021-0.431,5.56-0.742,9.582l23.484,20.03v193.04l-35.813,41.053l6.988,13.102h27.078l46.295,46.295
		l46.295-46.295h27.078l6.988-13.102l-35.813-41.053v-193.04l23.484-20.03c-0.312-4.021-0.431-5.56-0.742-9.582l-27.109-16.683
		v-267.286l39.088-22.093v-60.068c0,0,23.584-3.767,24.404,23.397l0.273,21.205l74.246,28.825L1750.32,1655.043z M1394.603,1354.737
		l-69.4,28.513c-1.693-1.935-1.668-1.905-3.361-3.84l38.87-67.482l-38.242-80.201c-1.418-2.975,1.823-6.014,4.7-4.408l67.432,37.636
		L1394.603,1354.737L1394.603,1354.737z M1606.405,1354.737v-89.782l67.432-37.636c2.878-1.606,6.119,1.433,4.7,4.408
		l-38.241,80.201l38.87,67.482c-1.693,1.935-1.668,1.906-3.361,3.84L1606.405,1354.737z"/>
	<path fill="#010101" d="M1881.591,1657.563c-39.924,48.83-175.589,220.945-213.781,269.434c2.922,4.711,2.959,4.771,5.881,9.481
		l93.226-19.391l1.747,85.601l148.492-179.064l-102.197,26.204l71.699-189.316
		C1883.744,1658.817,1884.503,1659.259,1881.591,1657.563z"/>
	<path fill="#010101" d="M1114.351,1660.513l71.699,189.316l-102.198-26.204l148.492,179.064l1.747-85.601l93.226,19.391
		c2.922-4.711,2.959-4.771,5.881-9.481c-38.192-48.49-173.858-220.606-213.781-269.435
		C1116.505,1659.259,1117.264,1658.817,1114.351,1660.513z"/>
</g>
</svg>
