<?xml version="1.0" encoding="utf-8"?>
<!-- Generator: Adobe Illustrator 17.0.0, SVG Export Plug-In . SVG Version: 6.00 Build 0)  -->
<!DOCTYPE svg PUBLIC "-//W3C//DTD SVG 1.1//EN" "http://www.w3.org/Graphics/SVG/1.1/DTD/svg11.dtd">
<svg version="1.1" id="Capa_1" xmlns="http://www.w3.org/2000/svg" xmlns:xlink="http://www.w3.org/1999/xlink" x="0px" y="0px"
	 width="1084.671px" height="990.161px" viewBox="958.168 1012.919 1084.671 990.161"
	 enable-background="new 958.168 1012.919 1084.671 990.161" xml:space="preserve">
<g>
	<path fill="#010101" d="M1981.758,1494.999c0-72.526-37.069-173.224-67.299-251.293c23.839,8.224,47.725,17.43,71.364,27.867
		l-23.373-56.074c-22.873-9.684-45.914-18.189-68.858-25.756c-4.467-11.809-8.337-22.441-11.272-31.452
		c-11.656-35.783,21.22-81.927,61.381-86.002v-58.926c0,0-182.586-16.081-166.374,145.413
		c-152.704-31.732-276.85-25.439-276.85-25.439s-124.117-6.292-276.795,25.427c16.202-161.482-166.375-145.401-166.375-145.401
		v58.926c40.161,4.074,73.037,50.219,61.381,86.002c-2.934,9.006-6.801,19.63-11.264,31.432
		c-22.964,7.573-46.025,16.084-68.919,25.776l-23.373,56.074c23.66-10.446,47.567-19.659,71.427-27.888
		c-30.231,78.072-67.308,178.782-67.308,251.314c0,274.675,194.781,499.165,466.496,507.675v0.295h0.054h10.613
		c0,0.002-0.001,0.037-0.001,0.037c0.97,0.005,1.92,0.074,2.892,0.074c0.404,0,0.797-0.029,1.201-0.031
		c0.403,0.001,0.797,0.031,1.201,0.031c0.972,0,1.922-0.068,2.892-0.074c0,0-0.001-0.035-0.001-0.037h10.613h0.054v-0.295
		C1786.977,1994.164,1981.758,1769.674,1981.758,1494.999z M1678.277,1507.041l3.942-0.908v283.864
		c-21.508,12.466-44.561,22.666-68.747,30.512V1533.03C1633.324,1521.306,1655.07,1512.387,1678.277,1507.041z M1682.219,1493.687
		l-3.943-0.909c-23.207-5.347-44.952-14.265-64.804-25.989v-283.548c20.874,1.653,43.968,3.981,68.747,7.209V1493.687z
		 M1322.732,1492.779l-3.943,0.909v-303.244c24.78-3.227,47.874-5.555,68.747-7.207v283.553
		C1367.684,1478.513,1345.939,1487.432,1322.732,1492.779z M1318.789,1506.133l3.942,0.908c23.207,5.347,44.953,14.265,64.805,25.99
		v287.479c-24.186-7.846-47.238-18.047-68.747-30.512L1318.789,1506.133L1318.789,1506.133z M1529.891,1618.716
		c13.883-24.903,32.296-46.893,54.118-64.955v274.981c-22.176,5.175-45.157,8.371-68.747,9.362v-160.461
		C1515.262,1657.103,1519.89,1636.655,1529.891,1618.716z M1792.704,1226.151c29.272,78.878,59.693,187.776,59.693,269.06
		c0,115.029-55.314,213.936-140.716,275.638v-576.257c24.09,3.683,49.445,8.271,75.56,13.89
		C1788.898,1214.235,1790.636,1220.056,1792.704,1226.151z M1584.009,1181.227v264.832c-21.495-17.792-39.683-39.394-53.491-63.838
		c-10.516-18.616-15.256-39.945-15.256-61.326V1179.26C1529.414,1179.189,1553.178,1179.469,1584.009,1181.227z M1485.746,1179.26
		v141.635c0,21.381-4.739,42.71-15.256,61.326c-13.808,24.443-31.996,46.046-53.491,63.838v-264.835
		C1447.844,1179.467,1471.609,1179.188,1485.746,1179.26z M1148.61,1495.21c0-81.284,30.421-190.182,59.693-269.06
		c2.07-6.099,3.809-11.924,5.466-17.681c26.114-5.617,51.469-10.203,75.557-13.886v576.265
		C1203.924,1709.146,1148.61,1610.239,1148.61,1495.21z M1416.999,1828.742v-274.981c21.822,18.062,40.235,40.052,54.118,64.955
		c10.001,17.94,14.629,38.388,14.629,58.927v160.461C1462.156,1837.113,1439.175,1833.917,1416.999,1828.742z"/>
	<path fill="#010101" d="M2022.132,1493.283c-3.622,0.759-2.141,0.448-5.763,1.207c12.786,112.015-5.477,218.343-54.254,309.46
		c-57.65,107.693-156.32,168.013-202.924,191.786c1.313,3.281,0.905,2.262,2.218,5.543
		C2101.323,1914.463,2050.756,1601.536,2022.132,1493.283z"/>
	<path fill="#010101" d="M1038.892,1803.95c-48.777-91.117-67.039-197.445-54.254-309.46c-3.622-0.759-2.141-0.448-5.763-1.207
		c-28.623,108.253-79.191,421.18,260.722,507.995c1.313-3.281,0.905-2.262,2.218-5.543
		C1195.213,1971.963,1096.542,1911.643,1038.892,1803.95z"/>
</g>
</svg>
