<?xml version="1.0" encoding="utf-8"?>
<!-- Generator: Adobe Illustrator 17.0.0, SVG Export Plug-In . SVG Version: 6.00 Build 0)  -->
<!DOCTYPE svg PUBLIC "-//W3C//DTD SVG 1.1//EN" "http://www.w3.org/Graphics/SVG/1.1/DTD/svg11.dtd">
<svg version="1.1" id="Capa_1" xmlns="http://www.w3.org/2000/svg" xmlns:xlink="http://www.w3.org/1999/xlink" x="0px" y="0px"
	 width="1087.037px" height="1233.676px" viewBox="917.639 883.849 1087.037 1233.676"
	 enable-background="new 917.639 883.849 1087.037 1233.676" xml:space="preserve">
<g>
	<path fill="#010101" d="M1740.995,1246.514c0,0,104.766,86.843,155.221,213.476c76.823,192.811,13.312,382.176-46.317,460.197
		c0,0,233.124-156.637,127.16-441.597C1919.109,1322.753,1740.995,1246.514,1740.995,1246.514z"/>
	<polygon fill="#010101" points="1428.423,1263.101 1466.7,1305.205 1392.458,1416.208 1367.18,1427.027 1173.244,1275.86 
		1184.904,1182.582 1422.546,987.933 1689.982,1189.099 1697.307,1329.315 1691.258,1358.793 1396.526,1689.25 1470.528,1785.867 
		1437.216,2101.789 1397.616,2117.525 1357.858,1801.099 1254.902,1682.87 1567.496,1294.998 1422.2,1166.558 1323.8,1257.997 
		1367.18,1305.205 	"/>
	<path fill="#010101" d="M1277.731,883.849c-28.551,44.451-24.084,116.47,31.531,153.909l60.895-49.826
		C1284.501,960.416,1277.731,883.849,1277.731,883.849z"/>
	<path fill="#010101" d="M1132.367,1582.064c0-56.672,19.87-108.827,53.171-150.416l-0.019-0.003
		c0,0-154.467,72.685-148.419,300.441c0,0-81.735-202.774,82.981-439.639c-108.877,68.047-202.442,227.498-202.442,348.808
		c0,168.937,114.324,316.077,276.183,384.473c6.105,4.289,9.831,6.739,9.831,6.739l-193.936,25.518l352.24,41.219l-34.939-278.065
		C1215.363,1795.172,1132.367,1698.021,1132.367,1582.064z"/>
	<path fill="#010101" d="M1757.609,1914.917l-0.05-0.016c68.46-73.354,109.718-167.811,109.718-270.936
		c0-67.328-18.366-131.1-54.35-186.529c-15.414-23.743-46.614-73.651-72.012-110.313l-5.969,29.088l-51.326,57.547
		c111.336,214.942-9.883,323.963-9.883,323.963c22.463-133.572-25.517-224.49-48.306-258.722l-0.649,0.728
		c11.84,31.509,16.772,59.869,16.175,82.336c-2.502,94.241-56.394,176.091-136.069,217.383l-31.555,299.267l348.066-40.731
		l-193.936-25.518C1627.463,2032.466,1707.405,1980.338,1757.609,1914.917z"/>
</g>
</svg>
